# xmcd
#
# Track frame offsets:
#	150
#	10298
#	23566
#	34343
#	43953
#	56377
#	72802
#	87145
#	98873
#	109696
#	123172
#	135561
#
# Disc length: 1946 seconds
#
# Revision: 1
# Processed by: cddbd v1.5.2PL0 Copyright (c) Steve Scherf et al.
# Submitted via: audiograbber 1.83.01
#
DISCID=9507980c
DTITLE=George Jones - Original American Classics Vol. 3
DYEAR=2005
DGENRE=Country
TTITLE0=Walk Through this World with Me
TTITLE1=The Window Up Above
TTITLE2=Nothing Ever Hurt Me Half as Bad
TTITLE3=The Race is On
TTITLE4=A Lifetime of Regret
TTITLE5=C.C. Waterback (with Merle Haggard)
TTITLE6=Filipino Baby (with Ernest Tubb)
TTITLE7=I Turn to You
TTITLE8=Take These Chains from my Heart
TTITLE9=Almost Persuaded
TTITLE10=Hello Darlin'
TTITLE11=King of the Road
EXTD=
EXTT0=
EXTT1=
EXTT2=
EXTT3=
EXTT4=
EXTT5=
EXTT6=
EXTT7=
EXTT8=
EXTT9=
EXTT10=
EXTT11=
PLAYORDER=
